%
M48
M72
T01C0.0130
T02C0.0315
T03C0.0320
T04C0.0400
%
T01
X7614Y1920
X11723Y4080
X12363Y3440
X18763Y6080
X19243Y6560
X29653Y730
X35498Y3210
X8359Y7200
X2369Y11072
X3323Y12384
X1323Y12817
T02
X17598Y11459
X23503Y11459
X23503Y14963
X17598Y14963
T03
X27054Y14652
X27054Y15392
X27054Y18392
X27054Y11652
X27054Y10912
X27054Y7912
X25680Y7369
X24680Y7369
X23680Y7369
X22680Y7369
X21680Y7369
X20680Y7369
X19680Y7369
X18680Y7369
X17680Y7369
X16680Y7369
X15680Y7369
X14680Y7369
X13680Y7369
X12680Y7369
X9928Y6172
X9928Y5172
X10161Y4006
X8865Y3983
X7417Y3384
X6417Y3384
X5417Y3384
X4417Y3384
X3417Y3384
X2417Y3384
X1417Y3384
X1417Y6384
X2417Y6384
X3417Y6384
X4417Y6384
X5417Y6384
X6417Y6384
X7417Y6384
X12680Y4369
X13680Y4369
X14680Y4369
X15680Y4369
X16680Y4369
X17680Y4369
X18680Y4369
X19680Y4369
X20680Y4369
X21680Y4369
X22680Y4369
X23680Y4369
X24680Y4369
X25680Y4369
X23516Y1774
X21616Y1774
X19814Y2719
X16814Y2719
X15204Y2589
X14102Y2589
X14102Y1589
X15204Y1589
X11976Y1589
X11976Y2589
X10161Y1006
X8865Y983
X31031Y1219
X32397Y1203
X33814Y1235
X33814Y4235
X32397Y4203
X31582Y5172
X31031Y4219
X31582Y6172
X35322Y6172
X35322Y5172
T04
X1917Y1341
X2917Y1341
X3917Y1341
X4917Y1341
X5917Y1341
X6917Y1341
X11011Y10097
X13571Y10097
X13571Y11877
X13571Y13246
X11011Y13246
X11011Y11877
X11011Y15026
X13571Y15026
X13571Y16593
X11011Y16593
X11011Y18373
X13571Y18373
X19058Y19254
X20058Y19254
X21058Y19254
X22058Y19254
X26858Y3522
X26858Y2522
X26858Y1522
X36897Y1825
X36897Y2825
M30
