G75*
%MOIN*%
%OFA0B0*%
%FSLAX25Y25*%
%IPPOS*%
%LPD*%
%AMOC8*
5,1,8,0,0,1.08239X$1,22.5*
%
%ADD10OC8,0.05400*%
%ADD11C,0.05400*%
%ADD12C,0.06600*%
%ADD13R,0.05718X0.12411*%
%ADD14R,0.06600X0.16600*%
%ADD15R,0.08000X0.08000*%
%ADD16C,0.08000*%
%ADD17R,0.05324X0.05324*%
%ADD18C,0.05400*%
%ADD19C,0.03300*%
D10*
X0088655Y0009828D03*
X0101608Y0010065D03*
X0119757Y0015891D03*
X0119757Y0025891D03*
X0141017Y0025891D03*
X0152041Y0025891D03*
X0152041Y0015891D03*
X0141017Y0015891D03*
X0168143Y0027191D03*
X0198143Y0027191D03*
X0270545Y0079120D03*
X0315820Y0061718D03*
X0315820Y0051718D03*
X0310308Y0042191D03*
X0323970Y0042033D03*
X0338143Y0042348D03*
X0353222Y0051718D03*
X0353222Y0061718D03*
X0270545Y0109120D03*
X0270545Y0116521D03*
X0270545Y0146521D03*
X0270545Y0153923D03*
X0270545Y0183923D03*
X0099285Y0061718D03*
X0099285Y0051718D03*
X0101608Y0040065D03*
X0088655Y0039828D03*
X0310308Y0012191D03*
X0323970Y0012033D03*
X0338143Y0012348D03*
D11*
X0256804Y0041287D02*
X0256804Y0046087D01*
X0246804Y0046087D02*
X0246804Y0041287D01*
X0236804Y0041287D02*
X0236804Y0046087D01*
X0226804Y0046087D02*
X0226804Y0041287D01*
X0216804Y0041287D02*
X0216804Y0046087D01*
X0206804Y0046087D02*
X0206804Y0041287D01*
X0196804Y0041287D02*
X0196804Y0046087D01*
X0186804Y0046087D02*
X0186804Y0041287D01*
X0176804Y0041287D02*
X0176804Y0046087D01*
X0166804Y0046087D02*
X0166804Y0041287D01*
X0156804Y0041287D02*
X0156804Y0046087D01*
X0146804Y0046087D02*
X0146804Y0041287D01*
X0136804Y0041287D02*
X0136804Y0046087D01*
X0126804Y0046087D02*
X0126804Y0041287D01*
X0074167Y0036244D02*
X0074167Y0031444D01*
X0064167Y0031444D02*
X0064167Y0036244D01*
X0054167Y0036244D02*
X0054167Y0031444D01*
X0044167Y0031444D02*
X0044167Y0036244D01*
X0034167Y0036244D02*
X0034167Y0031444D01*
X0024167Y0031444D02*
X0024167Y0036244D01*
X0014167Y0036244D02*
X0014167Y0031444D01*
X0014167Y0061444D02*
X0014167Y0066244D01*
X0024167Y0066244D02*
X0024167Y0061444D01*
X0034167Y0061444D02*
X0034167Y0066244D01*
X0044167Y0066244D02*
X0044167Y0061444D01*
X0054167Y0061444D02*
X0054167Y0066244D01*
X0064167Y0066244D02*
X0064167Y0061444D01*
X0074167Y0061444D02*
X0074167Y0066244D01*
X0126804Y0071287D02*
X0126804Y0076087D01*
X0136804Y0076087D02*
X0136804Y0071287D01*
X0146804Y0071287D02*
X0146804Y0076087D01*
X0156804Y0076087D02*
X0156804Y0071287D01*
X0166804Y0071287D02*
X0166804Y0076087D01*
X0176804Y0076087D02*
X0176804Y0071287D01*
X0186804Y0071287D02*
X0186804Y0076087D01*
X0196804Y0076087D02*
X0196804Y0071287D01*
X0206804Y0071287D02*
X0206804Y0076087D01*
X0216804Y0076087D02*
X0216804Y0071287D01*
X0226804Y0071287D02*
X0226804Y0076087D01*
X0236804Y0076087D02*
X0236804Y0071287D01*
X0246804Y0071287D02*
X0246804Y0076087D01*
X0256804Y0076087D02*
X0256804Y0071287D01*
D12*
X0265576Y0035222D02*
X0271576Y0035222D01*
X0271576Y0025222D02*
X0265576Y0025222D01*
X0265576Y0015222D02*
X0271576Y0015222D01*
X0365970Y0018254D02*
X0371970Y0018254D01*
X0371970Y0028254D02*
X0365970Y0028254D01*
X0138707Y0100968D02*
X0132707Y0100968D01*
X0113107Y0100968D02*
X0107107Y0100968D01*
X0107107Y0118768D02*
X0113107Y0118768D01*
X0132707Y0118768D02*
X0138707Y0118768D01*
X0138707Y0132464D02*
X0132707Y0132464D01*
X0113107Y0132464D02*
X0107107Y0132464D01*
X0107107Y0150264D02*
X0113107Y0150264D01*
X0132707Y0150264D02*
X0138707Y0150264D01*
X0138707Y0165928D02*
X0132707Y0165928D01*
X0113107Y0165928D02*
X0107107Y0165928D01*
X0107107Y0183728D02*
X0113107Y0183728D01*
X0132707Y0183728D02*
X0138707Y0183728D01*
X0190584Y0189545D02*
X0190584Y0195545D01*
X0200584Y0195545D02*
X0200584Y0189545D01*
X0210584Y0189545D02*
X0210584Y0195545D01*
X0220584Y0195545D02*
X0220584Y0189545D01*
D13*
X0294560Y0190576D03*
X0304560Y0190576D03*
X0314560Y0190576D03*
X0314560Y0080340D03*
X0324560Y0080340D03*
X0334560Y0080340D03*
X0344560Y0080340D03*
X0354560Y0080340D03*
X0364560Y0080340D03*
X0374560Y0080340D03*
X0304560Y0080340D03*
X0294560Y0080340D03*
X0093064Y0080340D03*
X0083064Y0080340D03*
X0073064Y0080340D03*
X0063064Y0080340D03*
X0053064Y0080340D03*
X0043064Y0080340D03*
X0033064Y0080340D03*
X0023064Y0080340D03*
X0013064Y0080340D03*
X0013064Y0190576D03*
X0023064Y0190576D03*
X0033064Y0190576D03*
D14*
X0032671Y0206324D03*
X0022671Y0206324D03*
X0012671Y0206324D03*
X0294167Y0206324D03*
X0304167Y0206324D03*
X0314167Y0206324D03*
D15*
X0019167Y0013411D03*
D16*
X0029167Y0013411D03*
X0039167Y0013411D03*
X0049167Y0013411D03*
X0059167Y0013411D03*
X0069167Y0013411D03*
D17*
X0175978Y0114592D03*
X0235033Y0114592D03*
X0235033Y0149631D03*
X0175978Y0149631D03*
D18*
X0216163Y0017742D03*
X0235163Y0017742D03*
D19*
X0296529Y0007301D03*
X0354979Y0032098D03*
X0192428Y0065600D03*
X0187628Y0060800D03*
X0123628Y0034400D03*
X0117228Y0040800D03*
X0076138Y0019200D03*
X0083590Y0072000D03*
X0023691Y0110721D03*
X0033228Y0123839D03*
X0013228Y0128170D03*
M02*
